<svg width="50" height="23" viewBox="0 0 50 23" fill="none" xmlns="http://www.w3.org/2000/svg">
<path fill-rule="evenodd" clip-rule="evenodd" d="M28.8936 9.32637C31.6672 11.5725 33.0933 14.249 32.1272 15.8361C30.1805 19.028 22.5174 15.0468 20.2551 12.893C18.6165 11.333 16.7587 9.1422 17.9488 7.19379C18.9432 5.55864 22.177 5.55305 25.5098 7.21338C26.6818 7.79728 27.8823 8.50745 28.8936 9.32637Z" fill="white"/>
<path fill-rule="evenodd" clip-rule="evenodd" d="M18.6303 11.1091C17.7034 9.86515 17.1652 8.4769 17.949 7.19379C18.9435 5.55864 22.1772 5.55305 25.51 7.21338L25.5159 7.2163C22.6149 7.31903 19.7748 9.10897 18.6303 11.1091Z" fill="#2A579F"/>
<path fill-rule="evenodd" clip-rule="evenodd" d="M28.8935 9.32635C31.6672 11.5725 33.0933 14.2489 32.1272 15.8361C30.1805 19.028 22.5173 15.0468 20.2551 12.893C20.2232 12.8627 20.1912 12.8319 20.1592 12.8012C21.0594 10.3607 24.8631 8.1735 27.3088 8.21067C27.8651 8.55551 28.4017 8.92803 28.8935 9.32635Z" fill="#079C55"/>
<path fill-rule="evenodd" clip-rule="evenodd" d="M28.8936 9.32637C31.6672 11.5725 33.0933 14.249 32.1272 15.8361C30.1805 19.028 22.5174 15.0468 20.2551 12.893C18.6165 11.333 16.7587 9.1422 17.9488 7.19379C18.9432 5.55864 22.177 5.55305 25.5098 7.21338C26.6818 7.79728 27.8823 8.50745 28.8936 9.32637Z" fill="white"/>
<path fill-rule="evenodd" clip-rule="evenodd" d="M18.6303 11.1091C17.7034 9.86515 17.1652 8.4769 17.949 7.19379C18.9435 5.55864 22.1772 5.55305 25.51 7.21338L25.5159 7.2163C22.6149 7.31903 19.7748 9.10897 18.6303 11.1091Z" fill="#2A579F"/>
<path fill-rule="evenodd" clip-rule="evenodd" d="M28.8935 9.32635C31.6672 11.5725 33.0933 14.2489 32.1272 15.8361C30.1805 19.028 22.5173 15.0468 20.2551 12.893C20.2232 12.8627 20.1912 12.8319 20.1592 12.8012C21.0594 10.3607 24.8631 8.1735 27.3088 8.21067C27.8651 8.55551 28.4017 8.92803 28.8935 9.32635Z" fill="#079C55"/>
<path fill-rule="evenodd" clip-rule="evenodd" d="M42.1623 0.479126C67.1401 15.1861 26.1498 30.0301 6.57544 16.2413C22.0943 23.256 57.0318 15.592 42.1623 0.479126Z" fill="#079C55"/>
<path fill-rule="evenodd" clip-rule="evenodd" d="M7.83777 22.5187C-17.14 7.81176 23.8503 -7.03225 43.4246 6.75661C27.9058 -0.258103 -7.03176 7.40587 7.83777 22.5187Z" fill="#2A579F"/>
<path fill-rule="evenodd" clip-rule="evenodd" d="M26.0014 1.57275L26.2793 2.42936L27.1806 2.42766L26.4505 2.95644L26.7312 3.81309L26.0014 3.28131L25.2742 3.81309L25.5545 2.95644L24.8247 2.42766L25.7256 2.42936L26.0014 1.57275Z" fill="white"/>
<path fill-rule="evenodd" clip-rule="evenodd" d="M26.0017 1.80054L25.7766 2.49957L25.0413 2.49821L25.6369 2.9298L25.4084 3.62836L26.0014 3.19475L26.597 3.62883L26.368 2.9298L26.964 2.49821L26.2285 2.49957L26.0017 1.80054Z" fill="#FECB29"/>
</svg>
