<?xml version="1.0" encoding="UTF-8"?>
<!DOCTYPE svg PUBLIC "-//W3C//DTD SVG 1.1//EN" "http://www.w3.org/Graphics/SVG/1.1/DTD/svg11.dtd">
<!-- Creator: CorelDRAW 2023 -->
<svg xmlns="http://www.w3.org/2000/svg" xml:space="preserve" width="150mm" height="150mm" version="1.1" style="shape-rendering:geometricPrecision; text-rendering:geometricPrecision; image-rendering:optimizeQuality; fill-rule:evenodd; clip-rule:evenodd"
viewBox="0 0 15000 15000"
 xmlns:xlink="http://www.w3.org/1999/xlink"
 xmlns:xodm="http://www.corel.com/coreldraw/odm/2003">
 <defs>
  <style type="text/css">
   <![CDATA[
    .fil1 {fill:#FEFEFE}
    .fil4 {fill:#FECB29}
    .fil3 {fill:#079C55}
    .fil0 {fill:#2A579F}
    .fil2 {fill:white}
   ]]>
  </style>
 </defs>
 <g id="Camada_x0020_1">
  <metadata id="CorelCorpID_0Corel-Layer"/>
  <g id="_2201468204288">
   <g>
    <path class="fil0" d="M11748.33 11329.89c129.63,81.25 336.67,148.97 539.82,148.97 348.25,0 522.36,-178 522.36,-405.98 0,-521.41 -731.32,-345.67 -731.32,-594.61 0,-81.24 77.38,-142.86 207.01,-142.86 119.96,0 245.71,28.72 365.66,88.69l108.36 -230.88c-150.91,-72.24 -309.56,-115.11 -487.56,-115.11 -313.43,0 -497.24,181.21 -497.24,404.03 0,511.74 731.34,341.81 731.34,594.61 0,87.06 -75.46,146.73 -220.56,146.73 -135.42,0 -278.6,-49.99 -398.56,-121.56l-139.31 227.97zm-704.42 -903.53l3.85 0 181.87 549.47 -365.66 0 179.94 -549.47zm-652.02 1029.28l315.35 0 83.21 -253.46 514.64 0 85.13 253.46 313.43 0 -489.49 -1354.33 -332.78 0 -489.49 1354.33zm-632.86 0l292.15 0 0 -1095.06 448.85 0 0 -259.27 -1187.93 0 0 259.27 446.93 0 0 1095.06zm-1743.42 0l278.62 0 0 -888.05 603.64 888.05 276.66 0 0 -1354.33 -276.66 0 0 891.93 -603.64 -891.93 -278.62 0 0 1354.33zm-1271.32 -681.03c0,-270.85 166.4,-450.8 404.37,-450.8 239.91,0 406.3,179.95 406.3,450.8 0,276.66 -168.33,456.6 -406.3,456.6 -236.05,0 -404.37,-179.94 -404.37,-456.6zm-297.94 0c0,410.18 292.13,704.25 702.31,704.25 412.11,0 702.31,-294.07 702.31,-704.25 0,-406.3 -290.2,-696.5 -702.31,-696.5 -410.18,0 -702.31,290.2 -702.31,696.5zm-1267.46 -3.87c0,412.09 282.47,708.12 696.51,708.12 210.9,0 379.2,-67.72 524.31,-203.14l-174.12 -185.74c-90.93,89 -199.28,141.23 -334.71,141.23 -255.38,0 -415.97,-181.86 -415.97,-460.47 0,-268.93 164.44,-444.99 415.97,-444.99 131.56,0 232.16,50.3 326.98,125.75l158.64 -201.2c-141.23,-112.23 -303.75,-172.19 -491.43,-172.19 -414.03,0 -706.18,292.14 -706.18,692.63zm-1636.8 684.9l994.46 0 0 -255.38 -702.31 0 0 -319.24 619.12 0 0 -226.37 -619.12 0 0 -297.96 694.57 0 0 -255.38 -986.72 0 0 1354.33zm-1060.42 -237.97l0 -882.26 174.13 0c274.72,0 427.58,170.92 427.58,437.27 0,276.01 -143.18,444.99 -427.58,444.99l-174.13 0zm-292.15 237.97l445 0c501.09,0 744.85,-251.51 744.85,-684.9 0,-423.71 -261.17,-669.43 -744.85,-669.43l-445 0 0 1354.33z"/>
    <path class="fil0" d="M11655.31 9647.68l1082.62 0 0 -283.66 -753.49 0 0 -1232.02 -329.13 0 0 1515.68zm-872.8 -1151.91l4.33 0 203.53 614.93 -409.22 0 201.36 -614.93zm-729.68 1151.91l352.92 0 93.13 -283.66 575.94 0 95.26 283.66 350.78 0 -547.82 -1515.68 -372.4 0 -547.81 1515.68zm-1431.45 0l311.8 0 0 -993.85 675.54 993.85 309.64 0 0 -1515.68 -309.64 0 0 998.19 -675.54 -998.19 -311.8 0 0 1515.68zm-1515.9 -575.97c0,404.92 268.49,601.95 640.9,601.95 372.43,0 638.75,-197.03 638.75,-601.95l0 -939.71 -329.11 0 0 939.71c0,205.71 -127.74,322.63 -309.64,322.63 -184.03,0 -309.62,-116.92 -309.62,-322.63l0 -939.71 -331.28 0 0 939.71zm-1078.49 -307.44l0 -370.28 285.8 0c153.74,0 231.68,75.79 231.68,181.9 0,112.58 -77.94,188.38 -231.68,188.38l-285.8 0zm0 621.41l0 -391.91 335.61 0c145.05,0 240.33,64.96 240.33,192.7 0,132.08 -93.1,199.21 -240.33,199.21l-335.61 0zm-324.8 262l666.89 0c342.13,0 560.83,-153.74 560.83,-433.04 0,-186.23 -116.94,-298.82 -283.66,-352.95 140.73,-60.61 227.35,-164.56 227.35,-322.62 0,-236.01 -168.89,-407.07 -534.82,-407.07l-636.59 0 0 1515.68zm-569.67 0l329.11 0 0 -1515.68 -329.11 0 0 1515.68zm-1134.79 -805.47l0 -448.22 335.59 0c168.89,0 255.51,90.95 255.51,223.04 0,127.75 -84.45,225.18 -257.67,225.18l-333.43 0zm-329.13 805.47l329.13 0 0 -565.14 346.42 0 233.85 565.14 352.94 0 -290.16 -617.09c188.38,-80.12 277.16,-240.36 277.16,-417.91 0,-242.5 -149.39,-480.68 -582.45,-480.68l-666.89 0 0 1515.68zm-978.91 0l326.96 0 0 -1225.53 502.32 0 0 -290.15 -1329.45 0 0 290.15 500.17 0 0 1225.53z"/>
    <path class="fil0" d="M2215.75 12328.95l389.89 0 0 -82.49 -297.28 0 0 -156.43 263.04 0 0 -76.26 -263.04 0 0 -147.09 293.39 0 0 -82.49 -386 0 0 544.76zm436.28 -36.58c51.36,29.57 105.05,45.92 167.31,45.92 94.17,0 161.87,-43.58 161.87,-126.08 0,-157.2 -230.35,-102.72 -230.35,-183.65 0,-33.47 28.79,-49.03 67.71,-49.03 31.9,0 76.26,11.67 113.62,30.35l34.24 -66.93c-52.92,-24.12 -103.51,-35.02 -148.64,-35.02 -85.61,0 -156.43,44.36 -156.43,124.52 0,153.3 231.91,101.94 231.91,184.43 0,35.03 -31.13,49.81 -74.7,49.81 -45.92,0 -90.28,-16.35 -128.42,-38.91l-38.12 64.59zm426.14 -78.6c0,84.05 39.69,124.52 120.62,124.52 39.7,0 80.16,-15.57 107.4,-36.58l-34.24 -57.59c-18.68,13.24 -38.91,20.24 -61.48,20.24 -28.79,0 -42.02,-17.9 -42.02,-52.15l0 -227.24 114.4 0 0 -67.7 -114.4 0 0 -110.5 -90.28 0 0 110.5 -69.26 0 0 67.7 69.26 0 0 228.8zm257.29 15.57c0,64.58 50.58,108.95 123.73,108.95 54.48,0 94.95,-21.79 127.63,-56.03 20.24,33.45 49.03,46.69 117.51,46.69l0 -65.37c-23.34,0 -38.13,-10.77 -38.13,-36.84l0 -184.95c0,-78.61 -44.36,-133.86 -154.09,-133.86 -54.48,0 -116.73,19.46 -166.54,43.59l33.47 70.81c45.14,-22.57 89.49,-40.47 129.96,-40.47 46.69,0 66.93,23.35 66.93,57.59l0 45.92c-135.41,7 -240.47,44.35 -240.47,143.97zm90.27 -7.79c0,-63.03 78.6,-77.04 150.2,-80.15l0 87.94c-21.02,23.34 -52.92,40.47 -94.17,40.47 -33.47,0 -56.03,-18.68 -56.03,-48.26zm480.63 116.74c55.25,0 96.49,-24.9 129.18,-59.14l6.23 49.8 80.16 0 0 -587.55 -90.28 0 0 224.12c-33.46,-35.02 -76.26,-57.59 -125.29,-57.59 -98.06,0 -164.2,73.15 -164.2,208.56 0,144.75 65.36,221.8 164.2,221.8zm22.56 -71.6c-63.03,0 -95.72,-55.25 -95.72,-149.42 0,-90.27 32.69,-137.74 95.72,-137.74 38.92,0 72.38,17.89 102.73,52.14l0 185.21c-31.13,35.03 -62.26,49.81 -102.73,49.81zm261.96 -148.64c0,136.19 81.71,220.24 203.89,220.24 120.62,0 202.34,-84.05 202.34,-220.24 0,-127.63 -86.38,-210.12 -202.34,-210.12 -116.73,0 -203.89,82.49 -203.89,210.12zm91.83 0.78c0,-83.27 45.91,-139.3 112.06,-139.3 65.37,0 109.73,56.03 109.73,139.3 0,89.5 -41.24,148.64 -109.73,148.64 -70.82,0 -112.06,-59.14 -112.06,-148.64zm736.19 219.46c55.25,0 96.5,-24.9 129.18,-59.14l6.23 49.8 80.16 0 0 -587.55 -90.27 0 0 224.12c-33.47,-35.02 -76.27,-57.59 -125.3,-57.59 -98.05,0 -164.2,73.15 -164.2,208.56 0,144.75 65.36,221.8 164.2,221.8zm22.57 -71.6c-63.04,0 -95.72,-55.25 -95.72,-149.42 0,-90.27 32.68,-137.74 95.72,-137.74 38.91,0 72.37,17.89 102.73,52.14l0 185.21c-31.13,35.03 -62.26,49.81 -102.73,49.81zm261.96 -147.08c0,137.75 80.15,219.45 203.89,219.45 58.37,0 113.61,-18.67 161.09,-51.36l-39.69 -59.92c-34.24,21.79 -73.93,37.35 -115.96,37.35 -73.15,0 -113.61,-44.35 -118.29,-128.4l283.28 0c1.55,-10.12 3.11,-28.8 3.11,-41.25 0,-108.17 -56.82,-188.33 -175.88,-188.33 -114.4,0 -201.55,82.49 -201.55,212.46zm203.89 -144.75c63.81,0 86.38,45.91 86.38,103.5l-195.34 0c11.68,-65.37 53.7,-103.5 108.96,-103.5zm459.14 354.09l89.49 0 0 -406.24 183.67 256.82 183.65 -256.82 0 406.24 90.28 0 0 -544.76 -93.39 0 -179.76 256.04 -179.77 -256.04 -94.17 0 0 544.76zm622.27 -99.61c0,64.58 50.58,108.95 123.73,108.95 54.48,0 94.95,-21.79 127.63,-56.03 20.24,33.45 49.03,46.69 117.51,46.69l0 -65.37c-23.34,0 -38.13,-10.77 -38.13,-36.84l0 -184.95c0,-78.61 -44.36,-133.86 -154.09,-133.86 -54.48,0 -116.73,19.46 -166.54,43.59l33.47 70.81c45.14,-22.57 89.49,-40.47 129.96,-40.47 46.69,0 66.93,23.35 66.93,57.59l0 45.92c-135.41,7 -240.47,44.35 -240.47,143.97zm90.27 -7.79c0,-63.03 78.6,-77.04 150.2,-80.15l0 87.94c-21.02,23.34 -52.92,40.47 -94.17,40.47 -33.47,0 -56.03,-18.68 -56.03,-48.26zm365.45 -7.78c0,84.05 39.69,124.52 120.62,124.52 39.7,0 80.16,-15.57 107.4,-36.58l-34.25 -57.59c-18.68,13.24 -38.9,20.24 -61.47,20.24 -28.8,0 -42.03,-17.9 -42.03,-52.15l0 -227.24 114.4 0 0 -67.7 -114.4 0 0 -110.5 -90.27 0 0 110.5 -69.27 0 0 67.7 69.27 0 0 228.8zm244.05 -95.72c0,136.19 81.71,220.24 203.89,220.24 120.62,0 202.34,-84.05 202.34,-220.24 0,-127.63 -86.38,-210.12 -202.34,-210.12 -116.74,0 -203.89,82.49 -203.89,210.12zm91.83 0.78c0,-83.27 45.91,-139.3 112.06,-139.3 65.37,0 109.73,56.03 109.73,139.3 0,89.5 -41.25,148.64 -109.73,148.64 -70.82,0 -112.06,-59.14 -112.06,-148.64zm575.87 -66.93c0,171.21 108.95,286.39 279.39,286.39 75.48,0 144.74,-21.79 197.66,-59.14l0 -246.7 -223.35 0 0 69.26 136.98 0 0 129.18c-28.02,16.34 -68.5,26.47 -108.96,26.47 -116.73,0 -186,-80.16 -186,-205.46 0,-115.17 73.94,-196.11 186,-196.11 52.91,0 98.83,17.12 142.41,46.7l48.25 -66.16c-55.25,-38.13 -118.28,-61.48 -192.99,-61.48 -168.88,0 -279.39,116.74 -279.39,277.05zm566.24 277.05l90.27 0 0 -256.29c28.8,-54.22 59.92,-83.02 105.06,-83.02 21.02,0 36.58,3.89 52.15,10.12l16.34 -82.49c-14.79,-7.01 -32.69,-10.9 -54.48,-10.9 -49.81,0 -89.49,24.91 -119.84,78.6l-7.01 -67.7 -82.49 0 0 411.68zm271.29 -210.9c0,136.19 81.7,220.24 203.89,220.24 120.62,0 202.33,-84.05 202.33,-220.24 0,-127.63 -86.38,-210.12 -202.33,-210.12 -116.74,0 -203.89,82.49 -203.89,210.12zm91.83 0.78c0,-83.27 45.91,-139.3 112.06,-139.3 65.37,0 109.72,56.03 109.72,139.3 0,89.5 -41.24,148.64 -109.72,148.64 -70.82,0 -112.06,-59.14 -112.06,-148.64zm357.67 173.54c51.35,29.57 105.05,45.92 167.31,45.92 94.16,0 161.87,-43.58 161.87,-126.08 0,-157.2 -230.35,-102.72 -230.35,-183.65 0,-33.47 28.79,-49.03 67.71,-49.03 31.9,0 76.25,11.67 113.61,30.35l34.24 -66.93c-52.92,-24.12 -103.5,-35.02 -148.64,-35.02 -85.6,0 -156.42,44.36 -156.42,124.52 0,153.3 231.91,101.94 231.91,184.43 0,35.03 -31.13,49.81 -74.7,49.81 -45.92,0 -90.29,-16.35 -128.42,-38.91l-38.12 64.59zm368.56 0c51.36,29.57 105.05,45.92 167.32,45.92 94.16,0 161.87,-43.58 161.87,-126.08 0,-157.2 -230.36,-102.72 -230.36,-183.65 0,-33.47 28.8,-49.03 67.71,-49.03 31.91,0 76.26,11.67 113.62,30.35l34.24 -66.93c-52.92,-24.12 -103.5,-35.02 -148.64,-35.02 -85.61,0 -156.43,44.36 -156.43,124.52 0,153.3 231.91,101.94 231.91,184.43 0,35.03 -31.13,49.81 -74.7,49.81 -45.92,0 -90.28,-16.35 -128.41,-38.91l-38.13 64.59zm372.46 -174.32c0,136.19 81.71,220.24 203.89,220.24 120.62,0 202.34,-84.05 202.34,-220.24 0,-127.63 -86.38,-210.12 -202.34,-210.12 -116.74,0 -203.89,82.49 -203.89,210.12zm91.83 0.78c0,-83.27 45.91,-139.3 112.06,-139.3 65.37,0 109.73,56.03 109.73,139.3 0,89.5 -41.25,148.64 -109.73,148.64 -70.82,0 -112.06,-59.14 -112.06,-148.64zm736.19 219.46c55.25,0 96.49,-24.9 129.18,-59.14l6.23 49.8 80.16 0 0 -587.55 -90.27 0 0 224.12c-33.47,-35.02 -76.27,-57.59 -125.3,-57.59 -98.06,0 -164.2,73.15 -164.2,208.56 0,144.75 65.36,221.8 164.2,221.8zm22.56 -71.6c-63.03,0 -95.72,-55.25 -95.72,-149.42 0,-90.27 32.69,-137.74 95.72,-137.74 38.92,0 72.38,17.89 102.74,52.14l0 185.21c-31.13,35.03 -62.26,49.81 -102.74,49.81zm261.97 -148.64c0,136.19 81.7,220.24 203.89,220.24 120.62,0 202.33,-84.05 202.33,-220.24 0,-127.63 -86.38,-210.12 -202.33,-210.12 -116.74,0 -203.89,82.49 -203.89,210.12zm91.82 0.78c0,-83.27 45.91,-139.3 112.07,-139.3 65.37,0 109.72,56.03 109.72,139.3 0,89.5 -41.24,148.64 -109.72,148.64 -70.82,0 -112.07,-59.14 -112.07,-148.64zm574.32 161.09c52.14,32.68 129.19,58.37 209.35,58.37 136.96,0 204.66,-68.48 204.66,-157.98 0,-211.68 -306.61,-128.41 -306.61,-250.58 0,-40.48 37.35,-72.38 100.38,-72.38 53.71,0 105.06,14.01 150.98,36.57l35.02 -74.7c-54.47,-26.47 -117.51,-44.37 -189.11,-44.37 -122.17,0 -194.55,69.27 -194.55,156.43 0,207.78 306.62,126.85 306.62,249.81 0,43.58 -35.8,74.7 -107.39,74.7 -59.93,0 -115.96,-20.23 -164.21,-49.8l-45.14 73.93zm481.41 -89.49c0,89.49 39.69,147.86 133.08,147.86 52.91,0 98.83,-26.47 130.74,-59.14l5.44 49.8 83.27 0 0 -411.68 -90.27 0 0 294.94c-29.57,34.25 -64.59,55.26 -108.17,55.26 -48.25,0 -63.82,-30.35 -63.82,-75.49l0 -274.71 -90.27 0 0 273.16zm443.28 138.52l90.27 0 0 -587.55 -90.27 0 0 587.55z"/>
   </g>
   <g>
    <path class="fil1" d="M3807.97 7502.36c-499.07,-293.85 -1037.14,-680.71 -1376.6,-1157.92 -236.91,-333.03 -378.42,-717.18 -314.88,-1129.31 67.07,-434.99 345.7,-796.97 671.98,-1076.71 409.21,-350.85 928.4,-608.33 1431.65,-793.48 612.86,-225.49 1266.76,-368.3 1914.71,-444.22 704.71,-82.57 1425.03,-88.16 2130.45,-10.62 1126.65,123.83 2267.13,468.05 3200.78,1125.75 91.91,64.73 24.54,182.64 -77.89,136.33 -506.4,-228.9 -1069.11,-366.83 -1617.32,-448.77 -617.05,-92.22 -1250.24,-118.42 -1873.35,-93.62 -547.73,21.81 -1097.46,83.59 -1635.4,189.5 -490.95,96.65 -983.91,231.9 -1447.21,422.21 -627.85,257.91 -1438.41,722.48 -1618.99,1433.65 -166.84,657.06 271.87,1280.39 708.29,1723.95 75.79,77.04 -3.11,178.09 -96.22,123.26zm-196.15 -1475.62c506.4,228.9 1069.11,366.83 1617.32,448.77 617.06,92.22 1250.25,118.42 1873.35,93.62 547.73,-21.81 1097.47,-83.59 1635.4,-189.5 490.96,-96.65 983.91,-231.9 1447.21,-422.21 627.86,-257.91 1438.41,-722.48 1618.99,-1433.65 166.85,-657.06 -271.87,-1280.38 -708.28,-1723.95 -75.8,-77.02 3.1,-178.09 96.22,-123.26 499.07,293.85 1037.13,680.72 1376.6,1157.92 236.91,333.03 378.42,717.18 314.87,1129.31 -67.06,434.99 -345.7,796.97 -671.97,1076.71 -409.22,350.85 -928.41,608.32 -1431.66,793.48 -612.85,225.49 -1266.75,368.3 -1914.69,444.22 -704.72,82.57 -1425.05,88.16 -2130.46,10.63 -1126.65,-123.84 -2267.14,-468.06 -3200.79,-1125.76 -91.92,-64.73 -24.55,-182.64 77.89,-136.33zm2808.97 -597.98l-0.78 -0.68 -1.05 -1.07 -3.49 -3.36c-122.4,-116.71 -240.89,-242.56 -340.99,-379.18l-5.32 -7.26 -6.73 -9.29c-3.26,-4.48 -6.48,-9.01 -9.67,-13.54l-6.56 -9.37 -5.64 -8.14 -5.84 -8.5c-3.07,-4.5 -6.11,-9.01 -9.12,-13.55l-6.49 -9.87 -5.09 -7.78 -5.44 -8.43c-3.17,-4.9 -6.28,-9.86 -9.35,-14.82l-5.72 -9.27 -5.3 -8.73 -5.87 -9.77c-2.63,-4.36 -5.19,-8.77 -7.73,-13.19l-5.34 -9.3 -5.47 -9.73 -3.96 -7.12c-2.88,-5.17 -5.67,-10.38 -8.43,-15.61l-4.59 -8.72 -4.97 -9.65c-2.02,-3.91 -3.99,-7.85 -5.95,-11.79 -2.03,-4.08 -4.07,-8.17 -6.03,-12.29l-3.49 -7.32c-1.99,-4.16 -3.94,-8.33 -5.84,-12.53l-4.23 -9.3c-2.03,-4.48 -4.01,-8.98 -5.94,-13.5l-3.08 -7.22c-1.94,-4.54 -3.84,-9.11 -5.67,-13.71l-3.18 -7.95c-1.95,-4.86 -3.85,-9.75 -5.69,-14.67l-2.35 -6.3c-2.01,-5.36 -3.96,-10.74 -5.81,-16.16l-2.32 -6.77c-1.57,-4.56 -3.09,-9.14 -4.55,-13.74l-2.26 -7.08c-1.86,-5.85 -3.62,-11.73 -5.54,-18.34l-1.26 -4.5c-1.38,-4.96 -2.76,-9.93 -4.06,-14.92l-1.48 -5.68c-1.62,-6.21 -3.12,-12.45 -4.56,-18.7l-1.19 -5.46c-1.06,-4.85 -2.12,-9.69 -3.09,-14.56l-1.16 -5.84c-1.24,-6.21 -2.33,-12.44 -3.49,-19.36l-0.78 -4.95c-0.79,-4.96 -1.53,-9.94 -2.21,-14.92l-0.76 -5.6c-0.87,-6.44 -1.58,-12.9 -2.3,-20.1l-0.39 -4.25c-0.47,-5.16 -0.9,-10.33 -1.26,-15.5l-0.35 -5.03c-0.47,-6.68 -0.75,-13.37 -0.97,-20.78l-0.09 -4.02c-0.12,-5.39 -0.18,-10.77 -0.18,-16.15l0 -5.14c0.06,-6.67 0.18,-13.34 0.5,-20l0.23 -4.65c0.26,-5.38 0.59,-10.76 0.99,-16.13l0.32 -4.4c0.53,-6.97 1.23,-13.93 2.1,-20.87l0.53 -4.32c0.7,-5.59 1.48,-11.17 2.31,-16.74l0.67 -4.36c1.06,-6.6 2.24,-13.2 3.66,-20.46l0.89 -4.38c1.17,-5.73 2.44,-11.44 3.76,-17.14l0.82 -3.54c1.66,-6.87 3.42,-13.72 5.37,-20.52l1.26 -4.4c1.7,-5.99 3.55,-11.92 5.42,-17.86l0.86 -2.7c2.23,-6.85 4.59,-13.65 7.1,-20.4l1.62 -4.35c2.19,-5.91 4.56,-11.77 6.92,-17.62l1.2 -2.99c2.84,-6.8 5.77,-13.53 8.89,-20.2l2.01 -4.32c2.98,-6.39 6.1,-12.72 9.25,-19.03l0.14 -0.26c3.5,-7.01 7.24,-13.88 11.06,-20.7l2.36 -4.22c3.73,-6.66 7.6,-13.24 11.57,-19.76 141.03,-231.88 431.95,-299.1 685.36,-298.77 348.32,0.45 716.92,119.29 1026.12,273.33 132.67,66.09 262.75,137.96 388.98,215.65l17.23 10.73 22.48 14.21 22.45 14.37 16.69 10.85 16.7 10.96 22.11 14.71 17.35 11.73 15.57 10.64 16.33 11.29 18.65 13.06 20.61 14.67 14.65 10.57 18.33 13.4 24.01 17.87 10.5 7.92 15.58 11.91 15.53 12.01 10.33 8.1 15.29 12.12 14.98 12.04c256.34,206.52 514.01,474.49 663.87,770.48 110.63,218.49 178.42,493.53 42.1,717.19 -37.5,61.53 -85.33,114.72 -143.05,157.9 -188.69,141.13 -446.3,150.02 -670.9,120.2 -271.27,-36.03 -549.64,-133.14 -799.16,-243.54 -206.68,-91.43 -409.18,-199.17 -600.47,-319.55 -149.12,-93.83 -306.76,-203.44 -434.5,-325.23l-15.08 -14.44z"/>
    <g>
     <path class="fil2" d="M8328.51 4627.16c590.22,477.96 893.68,1047.5 688.1,1385.23 -414.25,679.23 -2044.92,-167.96 -2526.31,-626.26 -348.7,-331.97 -744.03,-798.16 -490.78,-1212.77 211.62,-347.95 899.75,-349.14 1608.94,4.17 249.4,124.25 504.86,275.37 720.05,449.63z"/>
     <path class="fil0" d="M6144.5 5006.52c-197.23,-264.71 -311.76,-560.12 -144.98,-833.16 211.62,-347.95 899.75,-349.14 1608.94,4.17l1.26 0.62c-617.32,21.86 -1221.67,402.75 -1465.22,828.37z"/>
     <path class="fil3" d="M8328.51 4627.16c590.22,477.96 893.68,1047.5 688.1,1385.23 -414.25,679.23 -2044.92,-167.96 -2526.31,-626.26 -6.79,-6.46 -13.6,-13 -20.41,-19.55 191.57,-519.31 1000.96,-984.74 1521.39,-976.83 118.38,73.38 232.57,152.65 337.23,237.41z"/>
    </g>
    <path class="fil3" d="M11152.02 2744.51c5315.13,3129.56 -3407.37,6288.28 -7572.68,3354.09 3302.32,1492.69 10736.83,-138.16 7572.68,-3354.09z"/>
    <path class="fil0" d="M3847.97 7434.41c-5315.13,-3129.56 3407.37,-6288.28 7572.68,-3354.09 -3302.32,-1492.69 -10736.83,138.16 -7572.68,3354.09z"/>
    <polygon class="fil2" points="7713.11,2977.24 7772.24,3159.52 7964.04,3159.16 7808.66,3271.68 7868.39,3453.97 7713.11,3340.81 7558.36,3453.97 7618,3271.68 7462.71,3159.16 7654.41,3159.52 "/>
    <polygon class="fil4" points="7713.17,3025.69 7665.26,3174.44 7508.79,3174.15 7635.53,3265.99 7586.91,3414.64 7713.1,3322.37 7839.85,3414.74 7791.11,3265.99 7917.94,3174.15 7761.42,3174.44 "/>
   </g>
  </g>
 </g>
</svg>
